<?xml version="1.0"?><svg width="1600" height="1200" xmlns="http://www.w3.org/2000/svg">
 <title>question mark</title>
 <defs>
  <linearGradient y2="0" x2="1" spreadMethod="pad" id="svg_2">
   <stop offset="0" stop-color="#ff0000"/>
   <stop offset="1" stop-opacity="0.996094" stop-color="#ffffff"/>
  </linearGradient>
  <linearGradient id="svg_4">
   <stop offset="0" stop-color="#ff0000"/>
   <stop offset="1" stop-opacity="0.996094" stop-color="#ffffff"/>
  </linearGradient>
  <radialGradient spreadMethod="pad" id="svg_5">
   <stop offset="0" stop-color="#ff0000"/>
   <stop offset="1" stop-opacity="0.996094" stop-color="#ffffff"/>
  </radialGradient>
  <radialGradient r="0.5" cy="0.5" cx="0.5" spreadMethod="pad" id="svg_6">
   <stop offset="0" stop-opacity="0.996094" stop-color="#ffffff"/>
   <stop offset="1" stop-opacity="0.996094" stop-color="#ff0000"/>
  </radialGradient>
 </defs>
 <metadata id="metadata7">image/svg+xmlhelp question mark lemon green yellow icon</metadata>
 <g>
  <path fill="#ff0000" stroke="#bf0000" stroke-width="16" stroke-miterlimit="4" d="m186.5,344.587585c0,-47.587219 19.052963,-95.803299 57.158875,-144.644791c38.11026,-48.841385 93.709351,-89.291039 166.801575,-121.35244c73.092377,-32.057854 158.366638,-48.086826 255.822876,-48.090355c90.581055,0.003529 170.544189,13.401703 239.889526,40.201683c69.340881,26.799881 122.914063,63.242302 160.710571,109.327278c37.792236,46.088379 56.688354,96.180634 56.692505,150.283508c-0.00415,42.577362 -10.778931,79.900085 -32.332886,111.957977c-21.553711,32.061371 -47.163818,59.73819 -76.83905,83.030579c-29.675232,23.292236 -82.930298,62.49115 -159.769592,117.593262c-21.240112,15.529236 -38.26709,29.179077 -51.072144,40.952698c-12.805176,11.770203 -22.333801,22.541138 -28.581543,32.309448c-6.247986,9.768311 -11.088562,19.53656 -14.52179,29.304871c-3.437622,9.768311 -8.59198,26.92572 -15.46283,51.472229c-11.868408,52.097473 -49.041809,78.146362 -111.511902,78.146362c-32.485352,0 -59.816589,-8.517761 -81.993408,-25.549255c-22.176941,-17.031616 -37.622437,-42.329224 -37.622437,-75.892883c0,-42.077759 12.478394,-78.520142 28.721008,-109.327393c16.238342,-30.807129 37.792297,-57.858521 64.657288,-81.150879c26.860596,-23.295715 63.092957,-50.972595 108.701599,-83.030426c39.979431,-28.054108 68.874695,-49.215271 86.677185,-63.493927c17.802612,-14.275116 32.799194,-30.181671 44.981201,-47.712921c12.182129,-17.53476 18.273071,-36.568237 18.273071,-57.107483c0,-40.075897 -18.586731,-73.887482 -55.755981,-101.438614c-37.173401,-27.55101 -85.11731,-41.326508 -143.840393,-41.330032c-68.722107,0.003525 -119.323914,13.904724 -151.809265,41.703827c-32.485474,27.802643 -59.97345,68.755432 -82.459686,122.854797c-21.240173,56.607849 -61.537628,84.910126 -120.883789,84.910126c-34.986267,0 -64.504639,-9.894073 -88.555023,-29.682159c-24.050323,-19.784637 -36.075562,-41.200836 -36.075562,-64.245087zm457.292786,823.537415c-38.110352,0 -71.375549,-9.894043 -99.800476,-29.678711c-28.424683,-19.788086 -42.637024,-47.464966 -42.637024,-83.030396c0,-31.558411 13.746155,-58.110168 41.23407,-79.648743c27.483643,-21.541809 61.219666,-32.312805 101.20343,-32.312805c39.356262,0 72.464722,10.770996 99.329773,32.312805c26.860718,21.538574 40.29303,48.090332 40.29303,79.648743c0,35.065796 -14.055481,62.616821 -42.166504,82.653198c-28.115417,20.036133 -60.60083,30.055908 -97.456299,30.055908l0,0z" id="path2821"/>
  <title>Layer 1</title>
 </g>
</svg>