<?xml version="1.0"?><svg width="641.9649" height="459.38766" xmlns="http://www.w3.org/2000/svg">
 <title>Tools_pink</title>

 <metadata id="metadata1906">image/svg+xml</metadata>
 <g>
  <title>Layer 1</title>
  <g id="svg_1">
   <g transform="matrix(1.1861 0 0 1.1861 -90.3296 -58.7733)" id="g6233">
    <path fill="#000000" fill-rule="nonzero" stroke-width="10" stroke-linecap="round" stroke-linejoin="round" stroke-miterlimit="4" d="m94.175461,117.082001c18.471649,-26.438354 51.062668,-42.418945 82.926056,-36.936493c39.714539,6.833282 69.780899,43.937744 70.233917,85.819305l229.781448,106.279327c18.443695,-17.379822 44.904114,-26.157349 70.530701,-21.748016c31.863403,5.482391 56.962585,31.824951 65.535583,62.916626l-2.284424,1.780457l-87.183594,-15.711304l-37.853943,33.637817l24.364807,43.17865l87.778931,15.663696l0.945374,2.448608c-18.47168,26.438354 -51.171753,42.655334 -83.035095,37.172852c-39.714539,-6.833252 -69.326416,-44.301453 -69.779449,-86.182983l-229.417755,-105.82489c-18.443665,17.379822 -45.631531,25.248413 -71.258148,20.839111c-31.863403,-5.482422 -55.853088,-29.879761 -64.426086,-60.971466l-0.661232,-2.852509l89.492577,15.056274l37.163055,-33.383179l-23.796478,-43.167633l-87.420044,-15.820343l-1.6362,-2.193909z" id="path2180"/>
    <path fill="#000000" fill-rule="nonzero" stroke-width="10" stroke-linecap="round" stroke-linejoin="round" stroke-miterlimit="4" id="path2182" d="m101.513092,120.322632c17.919533,-25.648132 47.984451,-40.198242 78.895432,-34.879669c38.527466,6.629028 65.525513,41.901733 65.964981,82.531433l225.082886,103.825348c17.892395,-16.860321 42.203766,-25.44577 67.064362,-21.168243c30.911011,5.318542 54.412964,29.092438 62.729736,59.254761l-0.364624,-0.477905l-85.124329,-14.659515l-38.380188,33.814545l24.854126,44.6745l85.137451,14.631165l0.493225,-0.32312c-17.919556,25.648071 -47.984436,40.198181 -78.895447,34.879639c-38.527435,-6.629028 -65.525482,-41.901733 -65.964966,-82.531433l-225.082901,-103.825348c-17.89238,16.860321 -42.203751,25.44577 -67.064377,21.168243c-30.911011,-5.318573 -54.412941,-29.092438 -62.729683,-59.254791l0.364594,0.477936l85.124382,14.659515l38.380142,-33.814545l-24.867218,-44.646118l-85.124397,-14.659515l-0.493187,0.32312z"/>
    <path fill="#000000" fill-rule="nonzero" stroke="#000000" stroke-width="8.431016" stroke-linecap="round" stroke-linejoin="round" stroke-miterlimit="4" id="path2170" d="m94.175461,117.082001c18.471649,-26.438354 51.062668,-42.418945 82.926056,-36.936493c39.714539,6.833282 69.780899,43.937744 70.233917,85.819305l229.781448,106.279327c18.443695,-17.379822 44.904114,-26.157349 70.530701,-21.748016c31.863403,5.482391 56.962585,31.824951 65.535583,62.916626l-2.284424,1.780457l-87.183594,-15.711304l-37.853943,33.637817l24.364807,43.17865l87.778931,15.663696l0.945374,2.448608c-18.47168,26.438354 -51.171753,42.655334 -83.035095,37.172852c-39.714539,-6.833252 -69.326416,-44.301453 -69.779449,-86.182983l-229.417755,-105.82489c-18.443665,17.379822 -45.631531,25.248413 -71.258148,20.839111c-31.863403,-5.482422 -55.853088,-29.879761 -64.426086,-60.971466l-0.661232,-2.852509l89.492577,15.056274l37.163055,-33.383179l-23.796478,-43.167633l-87.420044,-15.820343l-1.6362,-2.193909z"/>
    <path fill="#808080" fill-rule="nonzero" stroke-width="10" stroke-linecap="round" stroke-linejoin="round" stroke-miterlimit="4" d="m101.513092,120.322632c17.919533,-25.648132 47.984451,-40.198242 78.895432,-34.879669c38.527466,6.629028 65.525513,41.901733 65.964981,82.531433l225.082886,103.825348c17.892395,-16.860321 42.203766,-25.44577 67.064362,-21.168243c30.911011,5.318542 54.412964,29.092438 62.729736,59.254761l-0.364624,-0.477905l-85.124329,-14.659515l-38.380188,33.814545l24.854126,44.6745l85.137451,14.631165l0.493225,-0.32312c-17.919556,25.648071 -47.984436,40.198181 -78.895447,34.879639c-38.527435,-6.629028 -65.525482,-41.901733 -65.964966,-82.531433l-225.082901,-103.825348c-17.89238,16.860321 -42.203751,25.44577 -67.064377,21.168243c-30.911011,-5.318573 -54.412941,-29.092438 -62.729683,-59.254791l0.364594,0.477936l85.124382,14.659515l38.380142,-33.814545l-24.867218,-44.646118l-85.124397,-14.659515l-0.493187,0.32312z" id="path2157"/>
   </g>
   <path fill="#cccccc" fill-rule="nonzero" stroke="#000000" stroke-width="8" stroke-linecap="round" stroke-linejoin="round" stroke-miterlimit="4" id="rect5194" d="m384.646637,179.479568l8.648407,9.222168l-232.783875,207.295059l-7.158325,14.429077l-34.281204,22.638092l-9.61393,-10.251709l26.293785,-31.155457l16.111267,-4.882202l232.783875,-207.295029z"/>
   <g transform="matrix(0.807185 0.860734 -0.973261 0.866693 910.048 339.727)" id="g6178">
    <path fill="#ff007f" fill-rule="nonzero" stroke="#000000" stroke-width="8.0653" stroke-linecap="round" stroke-linejoin="round" stroke-miterlimit="4" d="m-429.44635,40.282669c0,0 35.944763,-25.635422 74.285706,0c0,0 -3.377716,141.321823 -3.377716,141.321823c-9.092529,13.858704 -12.867035,25.504242 -12.867035,35.463898c0,8.928986 10.183838,30.357147 10.183838,30.357147l-61.153717,0c0,0 8.964478,-21.777527 8.964478,-30.357147c-0.330139,-9.670837 -4.962708,-21.540009 -14.266724,-35.3815c0,0 -1.768829,-141.404221 -1.768829,-141.404221z" id="rect5183"/>
    <path fill="#ff007f" fill-rule="nonzero" stroke-width="10" stroke-linecap="round" stroke-linejoin="round" stroke-miterlimit="4" d="m-392.499908,28.884766c-2.634918,0.042313 -5.156891,0.269638 -7.59375,0.59375c8.761505,1.20166 18.196014,4.403656 27.78125,10.8125c0,0 -3.375,141.3125 -3.375,141.3125c-9.092529,13.858704 -12.875,25.509125 -12.875,35.46875c0,8.928986 10.1875,30.34375 10.1875,30.34375l17.15625,0c0,0 -10.187469,-21.414764 -10.1875,-30.34375c0,-9.959625 3.782501,-21.610046 12.875,-35.46875c0,0 3.375031,-141.3125 3.375,-141.3125c-13.179688,-8.81218 -26.093048,-11.586975 -37.34375,-11.40625z" id="path6170"/>
    <path fill="#ff007f" fill-rule="nonzero" stroke="#000000" stroke-width="8.0653" stroke-linecap="round" stroke-linejoin="round" stroke-miterlimit="4" id="path6176" d="m-429.44635,40.282669c0,0 35.944763,-25.635422 74.285706,0c0,0 -3.377716,141.321823 -3.377716,141.321823c-9.092529,13.858704 -12.867035,25.504242 -12.867035,35.463898c0,8.928986 10.183838,30.357147 10.183838,30.357147l-61.153717,0c0,0 8.964478,-21.777527 8.964478,-30.357147c-0.330139,-9.670837 -4.962708,-21.540009 -14.266724,-35.3815c0,0 -1.768829,-141.404221 -1.768829,-141.404221z"/>
   </g>
  </g>
 </g>
</svg>